{
  "accessors": [
    {
      "bufferView": 2,
      "componentType": 5126,
      "count": 9973,
      "max": [
        13.339995384216309,
        11.25181770324707,
        15.0
      ],
      "min": [
        -15.096346855163574,
        -8.523472785949707,
        0.0
      ],
      "type": "VEC3"
    },
    {
      "bufferView": 2,
      "byteOffset": 119676,
      "componentType": 5126,
      "count": 9973,
      "max": [
        1.0,
        1.0,
        1.0
      ],
      "min": [
        -1.0,
        -1.0,
        -1.0
      ],
      "type": "VEC3"
    },
    {
      "bufferView": 1,
      "componentType": 5126,
      "count": 9973,
      "max": [
        0.9934939742088318,
        0.9949640035629272
      ],
      "min": [
        0.044495001435279846,
        0.006978000048547983
      ],
      "type": "VEC2"
    },
    {
      "bufferView": 0,
      "componentType": 5125,
      "count": 36531,
      "type": "SCALAR"
    },
    {
      "bufferView": 2,
      "byteOffset": 239352,
      "componentType": 5126,
      "count": 9966,
      "max": [
        13.339995384216309,
        11.75181770324707,
        15.0
      ],
      "min": [
        -15.096346855163574,
        -8.523472785949707,
        0.0
      ],
      "type": "VEC3"
    },
    {
      "bufferView": 2,
      "byteOffset": 358944,
      "componentType": 5126,
      "count": 9966,
      "max": [
        1.0,
        1.0,
        1.0
      ],
      "min": [
        -1.0,
        -1.0,
        -1.0
      ],
      "type": "VEC3"
    },
    {
      "bufferView": 1,
      "byteOffset": 79784,
      "componentType": 5126,
      "count": 9966,
      "max": [
        1.0,
        0.9891589879989624
      ],
      "min": [
        0.0,
        -0.17149899899959564
      ],
      "type": "VEC2"
    },
    {
      "bufferView": 0,
      "byteOffset": 146124,
      "componentType": 5125,
      "count": 32400,
      "type": "SCALAR"
    },
    {
      "bufferView": 2,
      "byteOffset": 478536,
      "componentType": 5126,
      "count": 7816,
      "max": [
        8.814987182617188,
        11.251816749572754,
        12.327314376831055
      ],
      "min": [
        -15.096346855163574,
        -5.990117073059082,
        0.0
      ],
      "type": "VEC3"
    },
    {
      "bufferView": 2,
      "byteOffset": 572328,
      "componentType": 5126,
      "count": 7816,
      "max": [
        1.0,
        1.0,
        1.0
      ],
      "min": [
        -1.0,
        -1.0,
        -1.0
      ],
      "type": "VEC3"
    },
    {
      "bufferView": 1,
      "byteOffset": 159512,
      "componentType": 5126,
      "count": 7816,
      "max": [
        0.9963669776916504,
        0.9900209903717041
      ],
      "min": [
        0.0036329999566078186,
        -0.17149899899959564
      ],
      "type": "VEC2"
    },
    {
      "bufferView": 0,
      "byteOffset": 275724,
      "componentType": 5125,
      "count": 18492,
      "type": "SCALAR"
    }
  ],
  "asset": {
    "extras": {
      "author": "zyphur (https://sketchfab.com/zyphur)",
      "license": "CC-BY-4.0 (http://creativecommons.org/licenses/by/4.0/)",
      "source": "https://sketchfab.com/3d-models/modern-gaming-setup-e128a60844a74dfebe56ba9f0a315c1c",
      "title": "Modern Gaming Setup"
    },
    "generator": "Sketchfab-17.14.0",
    "version": "2.0"
  },
  "bufferViews": [
    {
      "buffer": 0,
      "byteLength": 349692,
      "name": "floatBufferViews",
      "target": 34963
    },
    {
      "buffer": 0,
      "byteLength": 222040,
      "byteOffset": 349692,
      "byteStride": 8,
      "name": "floatBufferViews",
      "target": 34962
    },
    {
      "buffer": 0,
      "byteLength": 666120,
      "byteOffset": 571732,
      "byteStride": 12,
      "name": "floatBufferViews",
      "target": 34962
    }
  ],
  "buffers": [
    {
      "byteLength": 1237852,
      "uri": "scene.bin"
    }
  ],
  "extensionsRequired": [
    "KHR_materials_pbrSpecularGlossiness"
  ],
  "extensionsUsed": [
    "KHR_materials_pbrSpecularGlossiness"
  ],
  "images": [
    {
      "uri": "textures/lambert2SG_diffuse.png"
    }
  ],
  "materials": [
    {
      "doubleSided": true,
      "extensions": {
        "KHR_materials_pbrSpecularGlossiness": {
          "diffuseFactor": [
            1.0,
            1.0,
            1.0,
            1.0
          ],
          "diffuseTexture": {
            "index": 0
          },
          "glossinessFactor": 0.0,
          "specularFactor": [
            0.0,
            0.0,
            0.0
          ]
        }
      },
      "name": "lambert2SG"
    }
  ],
  "meshes": [
    {
      "name": "Object_0",
      "primitives": [
        {
          "attributes": {
            "NORMAL": 1,
            "POSITION": 0,
            "TEXCOORD_0": 2
          },
          "indices": 3,
          "material": 0,
          "mode": 4
        }
      ]
    },
    {
      "name": "Object_1",
      "primitives": [
        {
          "attributes": {
            "NORMAL": 5,
            "POSITION": 4,
            "TEXCOORD_0": 6
          },
          "indices": 7,
          "material": 0,
          "mode": 4
        }
      ]
    },
    {
      "name": "Object_2",
      "primitives": [
        {
          "attributes": {
            "NORMAL": 9,
            "POSITION": 8,
            "TEXCOORD_0": 10
          },
          "indices": 11,
          "material": 0,
          "mode": 4
        }
      ]
    }
  ],
  "nodes": [
    {
      "children": [
        1
      ],
      "matrix": [
        1.0,
        0.0,
        0.0,
        0.0,
        0.0,
        2.220446049250313e-16,
        -1.0,
        0.0,
        0.0,
        1.0,
        2.220446049250313e-16,
        0.0,
        0.0,
        0.0,
        0.0,
        1.0
      ],
      "name": "Sketchfab_model"
    },
    {
      "children": [
        2,
        3,
        4
      ],
      "name": "Room_2_Full.obj.cleaner.materialmerger.gles"
    },
    {
      "mesh": 0,
      "name": "Object_2"
    },
    {
      "mesh": 1,
      "name": "Object_3"
    },
    {
      "mesh": 2,
      "name": "Object_4"
    }
  ],
  "samplers": [
    {
      "magFilter": 9729,
      "minFilter": 9987,
      "wrapS": 10497,
      "wrapT": 10497
    }
  ],
  "scene": 0,
  "scenes": [
    {
      "name": "Sketchfab_Scene",
      "nodes": [
        0
      ]
    }
  ],
  "textures": [
    {
      "sampler": 0,
      "source": 0
    }
  ]
}
